<svg width="146" height="28" viewBox="0 0 146 28" fill="none" xmlns="http://www.w3.org/2000/svg">
<path d="M142.08 0H99.5386C97.5008 0 95.8489 1.72911 95.8489 3.86207V24.1379C95.8489 26.2709 97.5008 28 99.5386 28H142.08C144.118 28 145.77 26.2709 145.77 24.1379V3.86207C145.77 1.72911 144.118 0 142.08 0Z" fill="#8E51FF"/>
<path d="M85.0764 18.0391L88.3473 18.5898C87.9268 19.793 87.2609 20.7109 86.3498 21.3438C85.4464 21.9688 84.3132 22.2812 82.9504 22.2812C80.7932 22.2812 79.1967 21.5742 78.1609 20.1602C77.3432 19.0273 76.9343 17.5977 76.9343 15.8711C76.9343 13.8086 77.4717 12.1953 78.5464 11.0312C79.6211 9.85938 80.9801 9.27344 82.6233 9.27344C84.469 9.27344 85.9253 9.88672 86.9923 11.1133C88.0592 12.332 88.5693 14.2031 88.5226 16.7266H80.2986C80.322 17.7031 80.5868 18.4648 81.093 19.0117C81.5992 19.5508 82.23 19.8203 82.9854 19.8203C83.4994 19.8203 83.9316 19.6797 84.2821 19.3984C84.6325 19.1172 84.8973 18.6641 85.0764 18.0391ZM85.2634 14.7109C85.24 13.7578 84.9947 13.0352 84.5274 12.543C84.0601 12.043 83.4916 11.793 82.8219 11.793C82.1054 11.793 81.5135 12.0547 81.0463 12.5781C80.579 13.1016 80.3492 13.8125 80.357 14.7109H85.2634Z" fill="white"/>
<path d="M75.3923 13.2344L72.1565 13.8203C72.0475 13.1719 71.7982 12.6836 71.4089 12.3555C71.0273 12.0273 70.5288 11.8633 69.9136 11.8633C69.0959 11.8633 68.4417 12.1484 67.9511 12.7188C67.4682 13.2812 67.2268 14.2266 67.2268 15.5547C67.2268 17.0312 67.4721 18.0742 67.9627 18.6836C68.4612 19.293 69.127 19.5977 69.9603 19.5977C70.5833 19.5977 71.0934 19.4219 71.4906 19.0703C71.8878 18.7109 72.1682 18.0977 72.3317 17.2305L75.5559 17.7812C75.221 19.2656 74.5785 20.3867 73.6284 21.1445C72.6783 21.9023 71.405 22.2812 69.8085 22.2812C67.9939 22.2812 66.5454 21.707 65.4629 20.5586C64.3881 19.4102 63.8508 17.8203 63.8508 15.7891C63.8508 13.7344 64.392 12.1367 65.4745 10.9961C66.557 9.84766 68.0212 9.27344 69.8669 9.27344C71.3777 9.27344 72.577 9.60156 73.4648 10.2578C74.3604 10.9062 75.0029 11.8984 75.3923 13.2344Z" fill="white"/>
<path d="M61.2341 22H57.9515V15.6484C57.9515 14.3047 57.8814 13.4375 57.7412 13.0469C57.6011 12.6484 57.3713 12.3398 57.052 12.1211C56.7405 11.9023 56.3628 11.793 55.9189 11.793C55.3504 11.793 54.8403 11.9492 54.3886 12.2617C53.9369 12.5742 53.6254 12.9883 53.4541 13.5039C53.2905 14.0195 53.2087 14.9727 53.2087 16.3633V22H49.9262V9.55469H52.9751V11.3828C54.0576 9.97656 55.4205 9.27344 57.0637 9.27344C57.788 9.27344 58.4499 9.40625 59.0496 9.67188C59.6493 9.92969 60.101 10.2617 60.4047 10.668C60.7162 11.0742 60.9304 11.5352 61.0472 12.0508C61.1718 12.5664 61.2341 13.3047 61.2341 14.2656V22Z" fill="white"/>
<path d="M39.0856 13.3516L36.1067 12.8125C36.4416 11.6094 37.0179 10.7188 37.8356 10.1406C38.6533 9.5625 39.8682 9.27344 41.4803 9.27344C42.9444 9.27344 44.0347 9.44922 44.7512 9.80078C45.4677 10.1445 45.97 10.5859 46.2581 11.125C46.5541 11.6562 46.702 12.6367 46.702 14.0664L46.667 17.9102C46.667 19.0039 46.7176 19.8125 46.8188 20.3359C46.9279 20.8516 47.1265 21.4062 47.4146 22H44.1671C44.0814 21.7812 43.9763 21.457 43.8517 21.0273C43.7972 20.832 43.7582 20.7031 43.7349 20.6406C43.1742 21.1875 42.5745 21.5977 41.9359 21.8711C41.2973 22.1445 40.6159 22.2812 39.8916 22.2812C38.6144 22.2812 37.6059 21.9336 36.866 21.2383C36.134 20.543 35.7679 19.6641 35.7679 18.6016C35.7679 17.8984 35.9354 17.2734 36.2703 16.7266C36.6051 16.1719 37.0724 15.75 37.6721 15.4609C38.2795 15.1641 39.1517 14.9062 40.2888 14.6875C41.823 14.3984 42.886 14.1289 43.4779 13.8789V13.5508C43.4779 12.918 43.3221 12.4688 43.0106 12.2031C42.6991 11.9297 42.1111 11.793 41.2467 11.793C40.6626 11.793 40.207 11.9102 39.8799 12.1445C39.5528 12.3711 39.288 12.7734 39.0856 13.3516ZM43.4779 16.0234C43.0573 16.1641 42.3915 16.332 41.4803 16.5273C40.5691 16.7227 39.9734 16.9141 39.693 17.1016C39.2647 17.4062 39.0505 17.793 39.0505 18.2617C39.0505 18.7227 39.2218 19.1211 39.5645 19.457C39.9072 19.793 40.3433 19.9609 40.8729 19.9609C41.4647 19.9609 42.0293 19.7656 42.5667 19.375C42.9639 19.0781 43.2248 18.7148 43.3494 18.2852C43.435 18.0039 43.4779 17.4688 43.4779 16.6797V16.0234Z" fill="white"/>
<path d="M33.2914 22H30.0089V15.6484C30.0089 14.3047 29.9388 13.4375 29.7986 13.0469C29.6584 12.6484 29.4287 12.3398 29.1094 12.1211C28.7979 11.9023 28.4201 11.793 27.9762 11.793C27.4077 11.793 26.8976 11.9492 26.4459 12.2617C25.9942 12.5742 25.6827 12.9883 25.5114 13.5039C25.3479 14.0195 25.2661 14.9727 25.2661 16.3633V22H21.9835V9.55469H25.0324V11.3828C26.115 9.97656 27.4778 9.27344 29.121 9.27344C29.8453 9.27344 30.5073 9.40625 31.1069 9.67188C31.7066 9.92969 32.1583 10.2617 32.462 10.668C32.7735 11.0742 32.9877 11.5352 33.1045 12.0508C33.2291 12.5664 33.2914 13.3047 33.2914 14.2656V22Z" fill="white"/>
<path d="M15.3483 7.86719V4.82031H18.6309V7.86719H15.3483ZM15.3483 22V9.55469H18.6309V22H15.3483Z" fill="white"/>
<path d="M0.769531 22V4.82031H12.5097V7.72656H4.22732V11.793H11.3765V14.6992H4.22732V22H0.769531Z" fill="white"/>
<path d="M129.518 22V4.82031H132.8V11.0078C133.813 9.85156 135.012 9.27344 136.398 9.27344C137.909 9.27344 139.159 9.82422 140.148 10.9258C141.137 12.0195 141.632 13.5938 141.632 15.6484C141.632 17.7734 141.125 19.4102 140.113 20.5586C139.108 21.707 137.886 22.2812 136.445 22.2812C135.736 22.2812 135.035 22.1055 134.342 21.7539C133.657 21.3945 133.065 20.8672 132.567 20.1719V22H129.518ZM132.777 15.5078C132.777 16.7969 132.979 17.75 133.384 18.3672C133.953 19.2422 134.708 19.6797 135.65 19.6797C136.375 19.6797 136.99 19.3711 137.496 18.7539C138.01 18.1289 138.267 17.1484 138.267 15.8125C138.267 14.3906 138.01 13.3672 137.496 12.7422C136.982 12.1094 136.324 11.793 135.522 11.793C134.735 11.793 134.081 12.1016 133.559 12.7188C133.038 13.3281 132.777 14.2578 132.777 15.5078Z" fill="#0B0809"/>
<path d="M123.198 22V20.1367C122.746 20.8008 122.15 21.3242 121.41 21.707C120.678 22.0898 119.904 22.2812 119.086 22.2812C118.253 22.2812 117.505 22.0977 116.843 21.7305C116.181 21.3633 115.702 20.8477 115.406 20.1836C115.11 19.5195 114.962 18.6016 114.962 17.4297V9.55469H118.245V15.2734C118.245 17.0234 118.303 18.0977 118.42 18.4961C118.545 18.8867 118.767 19.1992 119.086 19.4336C119.405 19.6602 119.81 19.7734 120.301 19.7734C120.861 19.7734 121.364 19.6211 121.808 19.3164C122.252 19.0039 122.555 18.6211 122.719 18.168C122.882 17.707 122.964 16.5859 122.964 14.8047V9.55469H126.247V22H123.198Z" fill="#0B0809"/>
<path d="M103.678 4.82031V11.1367C104.737 9.89453 106.002 9.27344 107.474 9.27344C108.23 9.27344 108.911 9.41406 109.518 9.69531C110.126 9.97656 110.582 10.3359 110.885 10.7734C111.197 11.2109 111.407 11.6953 111.516 12.2266C111.633 12.7578 111.691 13.582 111.691 14.6992V22H108.409V15.4258C108.409 14.1211 108.346 13.293 108.222 12.9414C108.097 12.5898 107.875 12.3125 107.556 12.1094C107.244 11.8984 106.851 11.793 106.376 11.793C105.831 11.793 105.344 11.9258 104.916 12.1914C104.488 12.457 104.172 12.8594 103.97 13.3984C103.775 13.9297 103.678 14.7188 103.678 15.7656V22H100.395V4.82031H103.678Z" fill="#0B0809"/>
</svg>
