<svg width="145" height="28" viewBox="0 0 145 28" fill="none" xmlns="http://www.w3.org/2000/svg">
<path d="M141.31 0H98.769C96.7313 0 95.0793 1.72911 95.0793 3.86207V24.1379C95.0793 26.2709 96.7313 28 98.769 28H141.31C143.348 28 145 26.2709 145 24.1379V3.86207C145 1.72911 143.348 0 141.31 0Z" fill="#8E51FF"/>
<path d="M84.3069 18.0391L87.5778 18.5898C87.1573 19.793 86.4914 20.7109 85.5802 21.3438C84.6768 21.9688 83.5437 22.2812 82.1808 22.2812C80.0236 22.2812 78.4271 21.5742 77.3913 20.1602C76.5736 19.0273 76.1648 17.5977 76.1648 15.8711C76.1648 13.8086 76.7021 12.1953 77.7768 11.0312C78.8516 9.85938 80.2105 9.27344 81.8538 9.27344C83.6995 9.27344 85.1558 9.88672 86.2227 11.1133C87.2896 12.332 87.7998 14.2031 87.753 16.7266H79.5291C79.5525 17.7031 79.8172 18.4648 80.3235 19.0117C80.8297 19.5508 81.4605 19.8203 82.2159 19.8203C82.7299 19.8203 83.1621 19.6797 83.5126 19.3984C83.863 19.1172 84.1278 18.6641 84.3069 18.0391ZM84.4938 14.7109C84.4705 13.7578 84.2251 13.0352 83.7579 12.543C83.2906 12.043 82.7221 11.793 82.0523 11.793C81.3359 11.793 80.744 12.0547 80.2767 12.5781C79.8095 13.1016 79.5797 13.8125 79.5875 14.7109H84.4938Z" fill="#0B0809"/>
<path d="M74.6228 13.2344L71.387 13.8203C71.2779 13.1719 71.0287 12.6836 70.6393 12.3555C70.2577 12.0273 69.7593 11.8633 69.1441 11.8633C68.3263 11.8633 67.6722 12.1484 67.1815 12.7188C66.6987 13.2812 66.4573 14.2266 66.4573 15.5547C66.4573 17.0312 66.7026 18.0742 67.1932 18.6836C67.6916 19.293 68.3575 19.5977 69.1908 19.5977C69.8138 19.5977 70.3239 19.4219 70.7211 19.0703C71.1183 18.7109 71.3986 18.0977 71.5622 17.2305L74.7863 17.7812C74.4515 19.2656 73.809 20.3867 72.8588 21.1445C71.9087 21.9023 70.6354 22.2812 69.0389 22.2812C67.2244 22.2812 65.7758 21.707 64.6933 20.5586C63.6186 19.4102 63.0813 17.8203 63.0813 15.7891C63.0813 13.7344 63.6225 12.1367 64.705 10.9961C65.7875 9.84766 67.2516 9.27344 69.0973 9.27344C70.6082 9.27344 71.8075 9.60156 72.6953 10.2578C73.5909 10.9062 74.2334 11.8984 74.6228 13.2344Z" fill="#0B0809"/>
<path d="M60.4645 22H57.182V15.6484C57.182 14.3047 57.1119 13.4375 56.9717 13.0469C56.8315 12.6484 56.6018 12.3398 56.2825 12.1211C55.971 11.9023 55.5933 11.793 55.1494 11.793C54.5809 11.793 54.0708 11.9492 53.6191 12.2617C53.1674 12.5742 52.8559 12.9883 52.6845 13.5039C52.521 14.0195 52.4392 14.9727 52.4392 16.3633V22H49.1566V9.55469H52.2056V11.3828C53.2881 9.97656 54.6509 9.27344 56.2942 9.27344C57.0184 9.27344 57.6804 9.40625 58.2801 9.67188C58.8797 9.92969 59.3314 10.2617 59.6351 10.668C59.9467 11.0742 60.1608 11.5352 60.2776 12.0508C60.4022 12.5664 60.4645 13.3047 60.4645 14.2656V22Z" fill="#0B0809"/>
<path d="M38.316 13.3516L35.3372 12.8125C35.6721 11.6094 36.2484 10.7188 37.0661 10.1406C37.8838 9.5625 39.0987 9.27344 40.7108 9.27344C42.1749 9.27344 43.2652 9.44922 43.9816 9.80078C44.6981 10.1445 45.2004 10.5859 45.4886 11.125C45.7845 11.6562 45.9325 12.6367 45.9325 14.0664L45.8975 17.9102C45.8975 19.0039 45.9481 19.8125 46.0493 20.3359C46.1583 20.8516 46.3569 21.4062 46.6451 22H43.3976C43.3119 21.7812 43.2068 21.457 43.0822 21.0273C43.0276 20.832 42.9887 20.7031 42.9653 20.6406C42.4046 21.1875 41.805 21.5977 41.1664 21.8711C40.5278 22.1445 39.8463 22.2812 39.1221 22.2812C37.8449 22.2812 36.8363 21.9336 36.0965 21.2383C35.3644 20.543 34.9984 19.6641 34.9984 18.6016C34.9984 17.8984 35.1659 17.2734 35.5007 16.7266C35.8356 16.1719 36.3029 15.75 36.9025 15.4609C37.51 15.1641 38.3822 14.9062 39.5192 14.6875C41.0534 14.3984 42.1165 14.1289 42.7083 13.8789V13.5508C42.7083 12.918 42.5526 12.4688 42.2411 12.2031C41.9296 11.9297 41.3416 11.793 40.4771 11.793C39.8931 11.793 39.4375 11.9102 39.1104 12.1445C38.7833 12.3711 38.5185 12.7734 38.316 13.3516ZM42.7083 16.0234C42.2878 16.1641 41.6219 16.332 40.7108 16.5273C39.7996 16.7227 39.2038 16.9141 38.9235 17.1016C38.4951 17.4062 38.281 17.793 38.281 18.2617C38.281 18.7227 38.4523 19.1211 38.795 19.457C39.1376 19.793 39.5738 19.9609 40.1033 19.9609C40.6952 19.9609 41.2598 19.7656 41.7972 19.375C42.1943 19.0781 42.4552 18.7148 42.5798 18.2852C42.6655 18.0039 42.7083 17.4688 42.7083 16.6797V16.0234Z" fill="#0B0809"/>
<path d="M32.5219 22H29.2393V15.6484C29.2393 14.3047 29.1692 13.4375 29.0291 13.0469C28.8889 12.6484 28.6591 12.3398 28.3398 12.1211C28.0283 11.9023 27.6506 11.793 27.2067 11.793C26.6382 11.793 26.1281 11.9492 25.6764 12.2617C25.2247 12.5742 24.9132 12.9883 24.7419 13.5039C24.5783 14.0195 24.4966 14.9727 24.4966 16.3633V22H21.214V9.55469H24.2629V11.3828C25.3454 9.97656 26.7083 9.27344 28.3515 9.27344C29.0758 9.27344 29.7377 9.40625 30.3374 9.67188C30.9371 9.92969 31.3888 10.2617 31.6925 10.668C32.004 11.0742 32.2182 11.5352 32.335 12.0508C32.4596 12.5664 32.5219 13.3047 32.5219 14.2656V22Z" fill="#0B0809"/>
<path d="M14.5788 7.86719V4.82031H17.8614V7.86719H14.5788ZM14.5788 22V9.55469H17.8614V22H14.5788Z" fill="#0B0809"/>
<path d="M0 22V4.82031H11.7401V7.72656H3.45779V11.793H10.607V14.6992H3.45779V22H0Z" fill="#0B0809"/>
<path d="M128.748 22V4.82031H132.031V11.0078C133.043 9.85156 134.242 9.27344 135.629 9.27344C137.139 9.27344 138.389 9.82422 139.378 10.9258C140.367 12.0195 140.862 13.5938 140.862 15.6484C140.862 17.7734 140.356 19.4102 139.343 20.5586C138.339 21.707 137.116 22.2812 135.675 22.2812C134.967 22.2812 134.266 22.1055 133.573 21.7539C132.887 21.3945 132.295 20.8672 131.797 20.1719V22H128.748ZM132.007 15.5078C132.007 16.7969 132.21 17.75 132.615 18.3672C133.183 19.2422 133.939 19.6797 134.881 19.6797C135.605 19.6797 136.22 19.3711 136.727 18.7539C137.241 18.1289 137.498 17.1484 137.498 15.8125C137.498 14.3906 137.241 13.3672 136.727 12.7422C136.213 12.1094 135.555 11.793 134.752 11.793C133.966 11.793 133.312 12.1016 132.79 12.7188C132.268 13.3281 132.007 14.2578 132.007 15.5078Z" fill="white"/>
<path d="M122.428 22V20.1367C121.977 20.8008 121.381 21.3242 120.641 21.707C119.909 22.0898 119.134 22.2812 118.316 22.2812C117.483 22.2812 116.735 22.0977 116.073 21.7305C115.411 21.3633 114.932 20.8477 114.637 20.1836C114.341 19.5195 114.193 18.6016 114.193 17.4297V9.55469H117.475V15.2734C117.475 17.0234 117.534 18.0977 117.65 18.4961C117.775 18.8867 117.997 19.1992 118.316 19.4336C118.636 19.6602 119.041 19.7734 119.531 19.7734C120.092 19.7734 120.594 19.6211 121.038 19.3164C121.482 19.0039 121.786 18.6211 121.949 18.168C122.113 17.707 122.195 16.5859 122.195 14.8047V9.55469H125.477V22H122.428Z" fill="white"/>
<path d="M102.908 4.82031V11.1367C103.967 9.89453 105.233 9.27344 106.705 9.27344C107.46 9.27344 108.142 9.41406 108.749 9.69531C109.356 9.97656 109.812 10.3359 110.116 10.7734C110.427 11.2109 110.638 11.6953 110.747 12.2266C110.863 12.7578 110.922 13.582 110.922 14.6992V22H107.639V15.4258C107.639 14.1211 107.577 13.293 107.452 12.9414C107.328 12.5898 107.106 12.3125 106.786 12.1094C106.475 11.8984 106.082 11.793 105.607 11.793C105.061 11.793 104.575 11.9258 104.146 12.1914C103.718 12.457 103.403 12.8594 103.2 13.3984C103.005 13.9297 102.908 14.7188 102.908 15.7656V22H99.6255V4.82031H102.908Z" fill="white"/>
</svg>
